<svg xmlns="http://www.w3.org/2000/svg" viewBox="0 0 520 160" fill="none">
  <defs><clipPath id="rl2"><polygon points="95,130 110,130 128,72 113,72"/></clipPath></defs>
  <polygon points="62,72 77,72 95,130 80,130" fill="#4A2545"/>
  <g clip-path="url(#rl2)">
    <polygon points="95,130 110,130 128,72 113,72" fill="#F5F2EA"/>
    <line x1="67" y1="68" x2="103" y2="104" stroke="#2F6E4F" stroke-width="4"/>
    <line x1="73" y1="68" x2="109" y2="104" stroke="#2F6E4F" stroke-width="4"/>
    <line x1="79" y1="68" x2="115" y2="104" stroke="#2F6E4F" stroke-width="4"/>
    <line x1="85" y1="68" x2="121" y2="104" stroke="#2F6E4F" stroke-width="4"/>
    <line x1="91" y1="68" x2="127" y2="104" stroke="#2F6E4F" stroke-width="4"/>
    <line x1="97" y1="68" x2="133" y2="104" stroke="#2F6E4F" stroke-width="4"/>
    <line x1="103" y1="68" x2="139" y2="104" stroke="#2F6E4F" stroke-width="4"/>
    <line x1="109" y1="68" x2="145" y2="104" stroke="#2F6E4F" stroke-width="4"/>
    <line x1="115" y1="68" x2="151" y2="104" stroke="#2F6E4F" stroke-width="4"/>
    <line x1="121" y1="68" x2="157" y2="104" stroke="#2F6E4F" stroke-width="4"/>
  </g>
  <rect x="92.5" y="133.5" width="5" height="5" rx="0.5" transform="rotate(45 95 136)" fill="#4A2545" opacity="0.65"/>
  <rect x="93.2" y="139.2" width="3.6" height="3.6" rx="0.4" transform="rotate(45 95 141)" fill="#4A2545" opacity="0.38"/>
  <text x="148" y="118" font-family="Georgia,serif" font-size="58" font-weight="700" fill="#4A2545" letter-spacing="6">VCARI</text>
  <text x="148" y="136" font-family="Arial,sans-serif" font-size="10" fill="#55504A" letter-spacing="2">VERIFIABLE COMPLIANCE ASSESSMENT FOR REGULATED INDUSTRIES</text>
  <text x="148" y="153" font-family="Georgia,serif" font-size="12" font-style="italic" fill="#4A2545">Privacy is preserved. Compliance is proven.</text>
</svg>
