<svg xmlns="http://www.w3.org/2000/svg" viewBox="0 0 80 84" fill="none">
  <defs><clipPath id="rl"><polygon points="40,66 55,66 73,8 58,8"/></clipPath></defs>
  <polygon points="7,8 22,8 40,66 25,66" fill="#4A2545"/>
  <g clip-path="url(#rl)">
    <polygon points="40,66 55,66 73,8 58,8" fill="#F5F2EA"/>
    <line x1="12" y1="4" x2="48" y2="40" stroke="#2F6E4F" stroke-width="4.5"/>
    <line x1="18" y1="4" x2="54" y2="40" stroke="#2F6E4F" stroke-width="4.5"/>
    <line x1="24" y1="4" x2="60" y2="40" stroke="#2F6E4F" stroke-width="4.5"/>
    <line x1="30" y1="4" x2="66" y2="40" stroke="#2F6E4F" stroke-width="4.5"/>
    <line x1="36" y1="4" x2="72" y2="40" stroke="#2F6E4F" stroke-width="4.5"/>
    <line x1="42" y1="4" x2="78" y2="40" stroke="#2F6E4F" stroke-width="4.5"/>
    <line x1="48" y1="4" x2="84" y2="40" stroke="#2F6E4F" stroke-width="4.5"/>
    <line x1="54" y1="4" x2="90" y2="40" stroke="#2F6E4F" stroke-width="4.5"/>
    <line x1="60" y1="4" x2="96" y2="40" stroke="#2F6E4F" stroke-width="4.5"/>
    <line x1="66" y1="4" x2="102" y2="40" stroke="#2F6E4F" stroke-width="4.5"/>
  </g>
  <rect x="37.5" y="69.5" width="5" height="5" rx="0.5" transform="rotate(45 40 72)" fill="#4A2545" opacity="0.65"/>
  <rect x="38.2" y="74.2" width="3.6" height="3.6" rx="0.4" transform="rotate(45 40 76)" fill="#4A2545" opacity="0.38"/>
  <rect x="38.8" y="78.2" width="2.4" height="2.4" rx="0.3" transform="rotate(45 40 79.4)" fill="#4A2545" opacity="0.18"/>
</svg>
